inDegrees=yes
name=ik_S53_A08_T02
DataType=double
version=3
OpenSimVersion=4.3-2021-08-27-4bc7ad9
endheader
time	pelvis_tilt	pelvis_list	pelvis_rotation	pelvis_tx	pelvis_ty	pelvis_tz	hip_flexion_r	hip_adduction_r	hip_rotation_r	knee_angle_r	knee_angle_r_beta	ankle_angle_r	subtalar_angle_r	mtp_angle_r	hip_flexion_l	hip_adduction_l	hip_rotation_l	knee_angle_l	knee_angle_l_beta	ankle_angle_l	subtalar_angle_l	mtp_angle_l	lumbar_extension	lumbar_bending	lumbar_rotation	arm_flex_r	arm_add_r	arm_rot_r	elbow_flex_r	pro_sup_r	wrist_flex_r	wrist_dev_r	arm_flex_l	arm_add_l	arm_rot_l	elbow_flex_l	pro_sup_l	wrist_flex_l	wrist_dev_l
23.45999999999959	-4.51174553958025	-0.8371109511800172	15.62743647084251	0	0.9399999999999999	0	44.536601986459	-10.09850349361314	-10.27776836703692	55.15472008723781	0.9626314635381539	0	0	0	44.536601986459	-10.09850349361314	-10.27776836703692	55.15472008723781	0.9626314635381539	0	0	0	-3.546208696421523	-1.782723245059516	3.736138436382767	15.4217002545951	-1.524644701777349	1.837659675572242	47.59075989312402	127.8380721225448	0	0	52.94270346666821	-4.228104235529941	10.71420807361225	36.44110375946261	99.78303339793248	0	0
23.47999999999959	-4.500548887161004	-0.831797000636193	15.64920218166471	0	0.9399999999999999	0	44.53673770235283	-10.09840320518425	-10.27758666792829	55.15468964378953	0.9626309321997457	0	0	0	44.53673770235283	-10.09840320518425	-10.27758666792829	55.15468964378953	0.9626309321997457	0	0	0	-3.534460659762899	-1.778941128415505	3.716063549201528	15.44056885394186	-1.512342070264655	1.819596041583469	47.55749613957826	127.8398561360314	0	0	52.95566109202932	-4.300251517953447	10.62407287100267	36.39576124955192	100.0786158554089	0	0
23.49999999999959	-4.492525139352772	-0.8308715948312504	15.66191811146591	0	0.9399999999999999	0	44.5373158643786	-10.09795334071977	-10.27679204978778	55.15456126187247	0.9626286915125929	0	0	0	44.5373158643786	-10.09795334071977	-10.27679204978778	55.15456126187247	0.9626286915125929	0	0	0	-3.527328166388815	-1.778475856649154	3.715268545373608	15.44193482215389	-1.523572745334621	1.809108480403692	47.59524420731859	127.7963647000884	0	0	52.92834305269992	-4.300006251164653	10.61612762780157	36.42764967985256	100.0558808184842	0	0
23.51999999999959	-4.472516093425262	-0.8143628821796973	15.6843541589658	0	0.9399999999999999	0	44.53745496155938	-10.09785130939333	-10.27660660902515	55.15452993887919	0.9626281448232287	0	0	0	44.53745496155938	-10.09785130939333	-10.27660660902515	55.15452993887919	0.9626281448232287	0	0	0	-3.503755185842636	-1.768134839773942	3.723491873747676	15.37488456314364	-1.544574016763925	1.778838318767804	47.61185945828576	127.8260310198419	0	0	52.7921788693745	-4.410365387958839	10.78207295064335	36.49492714698447	99.86970244455514	0	0
23.53999999999959	-4.455437864484879	-0.8211503672877283	15.70820671148275	0	0.9399999999999999	0	44.53758170350286	-10.09775909278807	-10.27643852477437	55.15450119836934	0.9626276432067031	0	0	0	44.53758170350286	-10.09775909278807	-10.27643852477437	55.15450119836934	0.9626276432067031	0	0	0	-3.489748193171797	-1.777204443952565	3.696054404237399	15.48606738629968	-1.466503144376013	1.761291362085739	47.47762615524569	127.8441586689332	0	0	52.68530084640805	-4.526287730039348	10.76476397791014	36.54122926919786	100.3423353264335	0	0
23.55999999999959	-4.44079739271306	-0.7998928448115178	15.7607083864862	0	0.9399999999999999	0	44.53770205576971	-10.09767096349548	-10.27627821693564	55.15447408654132	0.9626271700160379	0	0	0	44.53770205576971	-10.09767096349548	-10.27627821693564	55.15447408654132	0.9626271700160379	0	0	0	-3.470477800980454	-1.758546927296094	3.668527243819448	15.49221781863285	-1.483531667256272	1.756241369597994	47.40604274919852	127.8669533368741	0	0	52.45454107916458	-4.633090968405722	10.67515223354046	36.84600740101227	100.0950350724085	0	0
23.57999999999959	-4.416364466775072	-0.8037183444916742	15.81535992857522	0	0.9399999999999999	0	44.537856561448	-10.09755764027757	-10.27607217116778	55.15443935373519	0.9626265638142124	0	0	0	44.537856561448	-10.09755764027757	-10.27607217116778	55.15443935373519	0.9626265638142124	0	0	0	-3.44884952751275	-1.765662798007597	3.624662776004428	15.50520710802009	-1.428840094271388	1.715013235620922	47.3385799883748	127.8919972477983	0	0	52.09336712501622	-4.819557442820115	10.54922647933928	37.21713490241551	100.1574263694454	0	0
